PathFileType	4	(X/Y/Z)	C:\Vicon\SynologyDrive\Alex P\Athlete_3\Athlete_3_22_07_06\static_01\marker_experimental.trc																																																																																																																																																																																																																									
DataRate	CameraRate	NumFrames	NumMarkers	Units	OrigDataRate	OrigDataStartFrame	OrigNumFrames																																																																																																																																																																																																																					
200	200	4	79	mm	200	433	693																																																																																																																																																																																																																					
Frame#	Time	GLAB			RFHD			LFHD			C7			T6			SPINMOL			SPINM2			SPINM3			T12			BELTOL			BELT2			BELT3			SACROL			SACR2			SACR3			LASI			RASI			LPSI			RPSI			LTHOL			LTH2			LTH3			LKNEL			LKNEM			LFIB			LSHAOL			LSHA2			LSHA3			LMALL			LMALM			LHEE			LTOE			LM5			RTHOL			RTH2			RTH3			RKNEL			RKNEM			RFIB			RSHAOL			RSHA2			RSHA3			RMALL			RMALM			RHEE			RTOE			RM5			STRN			XIPH			LACR			LUAOL			LUA2			LUA3			LCUBL			LCUBM			LLAOL			LLA2			LLA3			LWRR			LWRU			RACR			RUAOL			RUA2			RUA3			RCUBL			RCUBM			RLAOL			RLA2			RLA3			RWRR			RWRU			Bar:BL			Bar:BR		 	LKJCWK			RKJCWK			RAJCWK			LAJCWK			RHJCWK			LHJCWK
		X1	Y1	Z1	X2	Y2	Z2	X3	Y3	Z3	X4	Y4	Z4	X5	Y5	Z5	X6	Y6	Z6	X7	Y7	Z7	X8	Y8	Z8	X9	Y9	Z9	X10	Y10	Z10	X11	Y11	Z11	X12	Y12	Z12	X13	Y13	Z13	X14	Y14	Z14	X15	Y15	Z15	X16	Y16	Z16	X17	Y17	Z17	X18	Y18	Z18	X19	Y19	Z19	X20	Y20	Z20	X21	Y21	Z21	X22	Y22	Z22	X23	Y23	Z23	X24	Y24	Z24	X25	Y25	Z25	X26	Y26	Z26	X27	Y27	Z27	X28	Y28	Z28	X29	Y29	Z29	X30	Y30	Z30	X31	Y31	Z31	X32	Y32	Z32	X33	Y33	Z33	X34	Y34	Z34	X35	Y35	Z35	X36	Y36	Z36	X37	Y37	Z37	X38	Y38	Z38	X39	Y39	Z39	X40	Y40	Z40	X41	Y41	Z41	X42	Y42	Z42	X43	Y43	Z43	X44	Y44	Z44	X45	Y45	Z45	X46	Y46	Z46	X47	Y47	Z47	X48	Y48	Z48	X49	Y49	Z49	X50	Y50	Z50	X51	Y51	Z51	X52	Y52	Z52	X53	Y53	Z53	X54	Y54	Z54	X55	Y55	Z55	X56	Y56	Z56	X57	Y57	Z57	X58	Y58	Z58	X59	Y59	Z59	X60	Y60	Z60	X61	Y61	Z61	X62	Y62	Z62	X63	Y63	Z63	X64	Y64	Z64	X65	Y65	Z65	X66	Y66	Z66	X67	Y67	Z67	X68	Y68	Z68	X69	Y69	Z69	X70	Y70	Z70	X71	Y71	Z71	X72	Y72	Z72	X73	Y73	Z73	X74 	Y74 	Z74 	X75 	Y75 	Z75 	X76 	Y76 	Z76 	X77 	Y77 	Z77 	X78 	Y78 	Z78 	X79 	Y79 	Z79
																																																																																																																																																																																																																												
434	2.165	355.4516	1572.5975	-1216.2249	296.8754	1587.8846	-1139.6472	292.4765	1588.2704	-1291.7699	131.0091	1448.6984	-1212.4744	77.4183	1243.6396	-1227.0321	73.2371	1211.3351	-1231.1985	68.5298	1150.4957	-1179.2466	78.0551	1149.5686	-1228.0757	91.4015	1108.8914	-1226.7971	68.1304	1086.3444	-1226.0421	69.6627	1026.7794	-1172.9059	62.0629	1024.5485	-1222.5098	73.0679	975.3367	-1247.8693	80.203	984.9382	-1198.0889	49.6175	926.9612	-1209.3024	289.0289	942.665	-1336.5684	293.2489	942.3281	-1109.0474	84.6332	991.2944	-1259.671	85.4416	990.0627	-1170.5422	202.9191	737.5355	-1443.8938	153.6891	676.9709	-1426.9557	202.0054	675.5349	-1440.965	193.3236	497.8719	-1427.2178	216.7942	466.0849	-1283.4468	153.129	442.3053	-1428.2548	145.3658	326.2738	-1449.8323	102.074	260.3099	-1444.4644	151.4249	264.398	-1450.0693	126.186	85.3701	-1434.0804	169.4529	96.2585	-1350.4391	78.4571	38.9403	-1374.7847	289.6769	47.3083	-1391.2272	238.5751	32.1202	-1492.1378	175.8393	708.1876	-1006.29	207.155	635.9283	-992.6729	161.375	647.5731	-1009.4669	161.1952	496.8524	-1013.8381	209.3829	461.4716	-1151.6449	117.1343	442.4856	-1015.336	91.7949	323.2664	-998.5269	131.2553	256.0038	-983.1813	85.2112	262.1716	-1002.3474	90.089	86.7712	-1016.8025	153.0821	96.9909	-1084.295	58.0522	38.2501	-1077.6775	261.6017	43.2018	-1022.2692	202.3519	40.9627	-937.2219	280.2554	1366.3431	-1224.8713	318.1304	1208.8279	-1226.7902	141.2952	1412.3623	-1400.63	129.292	1347.0347	-1514.0138	120.2312	1296.6447	-1556.543	154.2498	1332.2711	-1573.4784	166.2497	1295.0143	-1681.9043	188.7784	1208.9697	-1631.8856	195.44	1263.205	-1767.5541	201.3368	1226.7659	-1821.9017	239.9942	1258.1589	-1815.498	309.5266	1186.6794	-1860.6498	252.2643	1208.7389	-1903.3791	158.2506	1402.0846	-1041.9327	168.6557	1335.2648	-909.4976	218.7321	1326.6726	-866.4688	173.5496	1315.4458	-845.9808	166.0172	1288.89	-795.469	222.017	1195.4683	-808.9765	223.4917	1271.3059	-672.9283	274.2522	1259.6711	-633.0801	229.3673	1246.9277	-612.8799	311.9601	1179.8462	-579.9803	245.6934	1211.9886	-543.6392	1512.0811	1285.4636	-2307.3979	1540.6532	1283.4059	-83.9618	205.0589	481.9784	-1355.3323	185.289	479.162	-1082.7415	119.8657	81.4255	-1049.6797	146.2727	80.244	-1393.2576	233.6506	873.6288	-1139.361	230.592	873.873	-1304.269
435	2.17	355.4057	1572.6155	-1216.2286	296.8151	1587.9059	-1139.6541	292.4441	1588.2811	-1291.7728	131.0068	1448.6976	-1212.476	77.4147	1243.6422	-1227.0448	73.2229	1211.3418	-1231.215	68.5204	1150.4965	-1179.2566	78.0349	1149.5746	-1228.0919	91.3931	1108.8923	-1226.8027	68.1182	1086.3433	-1226.0551	69.6545	1026.7739	-1172.9198	62.0551	1024.546	-1222.5133	73.0263	975.3741	-1247.9105	80.1179	984.9709	-1198.1249	49.6107	926.9553	-1209.2971	289.0251	942.6616	-1336.5702	293.2431	942.3312	-1109.0474	84.6028	991.3029	-1259.6854	85.4355	990.0589	-1170.5598	202.9341	737.5333	-1443.8939	153.6835	676.9633	-1426.9567	202.0711	675.6304	-1441.2323	193.3421	497.8712	-1427.2266	216.8964	466.1017	-1283.2096	153.1398	442.3051	-1428.261	145.368	326.2708	-1449.8287	102.077	260.3137	-1444.4617	151.4251	264.3933	-1450.0707	126.1928	85.3704	-1434.0868	169.4588	96.258	-1350.4368	78.4531	38.9381	-1374.7881	289.6856	47.3116	-1391.2278	238.5768	32.1213	-1492.1395	175.8253	708.186	-1006.2942	207.1558	635.9376	-992.6704	161.3586	647.5762	-1009.4636	161.1862	496.8563	-1013.8336	209.4003	461.4708	-1151.6547	117.1271	442.4895	-1015.335	91.8023	323.2841	-998.5249	131.2659	256.0202	-983.1881	85.2088	262.183	-1002.3489	90.0893	86.7692	-1016.8037	153.0825	96.9928	-1084.2974	58.0579	38.2428	-1077.6848	261.6064	43.2006	-1022.2607	202.3545	40.9656	-937.2235	280.253	1366.3583	-1224.8699	318.1315	1208.84	-1226.78	141.3135	1412.3859	-1400.636	129.2995	1347.0474	-1514.0165	120.2283	1296.6483	-1556.527	154.2439	1332.2618	-1573.4746	166.227	1294.9838	-1681.9006	188.7653	1208.9554	-1631.8685	195.3566	1263.241	-1767.436	201.3132	1226.7406	-1821.8988	239.9577	1258.1433	-1815.4987	309.5118	1186.6661	-1860.6476	252.2345	1208.7018	-1903.3666	158.2442	1402.0923	-1041.9334	168.5613	1335.217	-909.4153	218.7064	1326.6576	-866.4788	173.5322	1315.443	-845.9815	166.0076	1288.8883	-795.4604	221.9959	1195.4661	-808.9791	223.4567	1271.2812	-672.8362	274.141	1259.7706	-633.2125	229.349	1246.9236	-612.8594	311.938	1179.8225	-579.9902	245.6727	1211.9713	-543.6325	1512.0693	1285.4609	-2307.3923	1540.6542	1283.4065	-83.9554	205.1192	481.9865	-1355.2181	185.2933	479.1635	-1082.7441	119.866	81.4255	-1049.6814	146.2777	80.2445	-1393.2627	233.6454	873.6309	-1139.3604	230.5882	873.8703	-1304.268
436	2.175	355.3763	1572.639	-1216.2142	296.7581	1587.9056	-1139.6515	292.4025	1588.2959	-1291.7726	130.9786	1448.7107	-1212.4868	77.4033	1243.6411	-1227.0563	73.2115	1211.3397	-1231.2125	68.5092	1150.5035	-1179.2618	78.4612	1149.5428	-1228.1104	91.3816	1108.8906	-1226.8102	68.1139	1086.3407	-1226.0626	69.6388	1026.7738	-1172.927	62.0425	1024.5415	-1222.53	73.0696	975.371	-1247.9138	80.1712	984.9328	-1198.0742	49.6002	926.937	-1209.2981	289.0209	942.6605	-1336.5677	293.2469	942.3222	-1109.0507	84.594	991.2943	-1259.7053	85.4241	990.0568	-1170.5649	202.9546	737.536	-1443.895	153.6974	676.9617	-1426.9492	202.0439	675.5363	-1440.967	193.3427	497.8657	-1427.228	216.8988	466.108	-1283.2152	153.148	442.3012	-1428.2683	145.383	326.2563	-1449.8156	102.0754	260.3126	-1444.4604	151.4296	264.3879	-1450.0676	126.1921	85.3691	-1434.0817	169.4375	96.2632	-1350.4395	78.4636	38.9376	-1374.7828	289.6804	47.3136	-1391.2261	238.5787	32.1238	-1492.1429	175.8163	708.1864	-1006.3006	207.1344	635.9406	-992.6651	161.3577	647.5637	-1009.4746	161.1781	496.8549	-1013.8333	209.384	461.4651	-1151.6431	117.1221	442.4865	-1015.3391	91.8287	323.2912	-998.5441	131.2541	256.0087	-983.1813	85.1959	262.1838	-1002.3533	90.0933	86.7639	-1016.7989	153.0804	96.9946	-1084.2925	58.0577	38.2454	-1077.6774	261.6002	43.2012	-1022.27	202.3559	40.9678	-937.2186	280.2514	1366.3754	-1224.8693	318.1269	1208.8499	-1226.7775	141.3312	1412.4012	-1400.6448	129.2816	1347.0425	-1514.0138	120.2324	1296.637	-1556.5175	154.234	1332.2554	-1573.4734	166.201	1294.963	-1681.8922	188.763	1208.9506	-1631.8685	195.3425	1263.1993	-1767.4125	201.2957	1226.7042	-1821.8956	239.9295	1258.1204	-1815.4962	309.4844	1186.6415	-1860.6388	252.2168	1208.6648	-1903.3564	158.2371	1402.0934	-1041.924	168.6444	1335.2661	-909.5009	218.6993	1326.6508	-866.4646	173.5166	1315.443	-845.9812	165.9888	1288.8843	-795.4655	221.8699	1195.3466	-808.9861	223.5326	1271.1515	-672.9346	274.1204	1259.7543	-633.2219	229.3338	1246.8928	-612.8725	311.9122	1179.803	-579.9937	245.6543	1211.9648	-543.635	1512.0775	1285.4563	-2307.3958	1540.6572	1283.4125	-83.9536	205.1208	481.9868	-1355.2216	185.281	479.16	-1082.7382	119.8673	81.4237	-1049.6766	146.2664	80.2465	-1393.2614	233.6489	873.6222	-1139.3612	230.5859	873.8674	-1304.269
437	2.18	355.3473	1572.6609	-1216.2139	296.7047	1587.908	-1139.6533	292.3766	1588.3063	-1291.7771	130.9559	1448.7125	-1212.4855	77.3954	1243.6486	-1227.051	73.2087	1211.3396	-1231.2233	68.4983	1150.5024	-1179.2667	78.4567	1149.5474	-1228.1154	91.3822	1108.8914	-1226.8251	68.1052	1086.3364	-1226.0751	69.6366	1026.772	-1172.9453	62.0431	1024.5349	-1222.5372	73.0356	975.3403	-1247.9308	80.0858	984.9694	-1198.145	49.5932	926.9339	-1209.3241	289.0271	942.6651	-1336.5696	293.2267	942.3354	-1109.0438	84.5983	991.2955	-1259.7102	85.4073	990.0571	-1170.573	202.9683	737.5343	-1443.9028	153.7191	676.9686	-1426.9529	202.0437	675.5347	-1440.9557	193.3522	497.8645	-1427.2371	216.8217	466.0794	-1283.4677	153.1552	442.3041	-1428.2748	145.3743	326.2618	-1449.8285	102.0731	260.3111	-1444.4546	151.4275	264.3891	-1450.0704	126.1886	85.3697	-1434.0848	169.4402	96.2639	-1350.4409	78.4631	38.9361	-1374.7832	289.6786	47.3132	-1391.2262	238.5836	32.126	-1492.1428	175.809	708.1886	-1006.3058	207.1243	635.9421	-992.6752	161.354	647.5695	-1009.481	161.1691	496.8523	-1013.83	209.3896	461.4641	-1151.6393	117.1173	442.4817	-1015.3417	91.7867	323.2804	-998.5264	131.2566	256.0123	-983.1796	85.2066	262.1849	-1002.3522	90.0891	86.7636	-1016.8007	153.0817	96.9929	-1084.2932	58.0543	38.2488	-1077.6838	261.5925	43.1951	-1022.3079	202.3575	40.9644	-937.2133	280.2391	1366.3956	-1224.8629	318.1213	1208.8585	-1226.7742	141.3367	1412.4202	-1400.6499	129.2813	1347.0294	-1514.0231	120.2194	1296.6289	-1556.5048	154.2384	1332.2489	-1573.4792	166.1812	1294.9426	-1681.8931	188.7672	1208.931	-1631.8522	195.3409	1263.1779	-1767.4323	201.2663	1226.6522	-1821.8749	239.9099	1258.0914	-1815.4968	309.4793	1186.6211	-1860.6332	252.1974	1208.6305	-1903.3481	158.2345	1402.1	-1041.9213	168.585	1335.2599	-909.4905	218.7003	1326.6614	-866.4537	173.4901	1315.4435	-845.979	165.9771	1288.8722	-795.4678	221.853	1195.3446	-808.9902	223.428	1271.2622	-672.8224	274.1096	1259.7325	-633.2133	229.2536	1246.9995	-612.8258	311.8934	1179.7771	-579.9933	245.6362	1211.9519	-543.6392	1512.0806	1285.4513	-2307.4028	1540.6497	1283.4048	-83.9574	205.087	481.972	-1355.3524	185.2793	479.1582	-1082.7346	119.8658	81.4227	-1049.678	146.2667	80.2466	-1393.2603	233.6347	873.6321	-1139.3629	230.5909	873.8711	-1304.271
